<svg xmlns="http://www.w3.org/2000/svg" width="1600" height="1000" viewBox="0 0 1600 1000" role="img" aria-label="FlowBoard WorkProof screenshot">
  <rect width="1600" height="1000" fill="#06101d"/>
  <rect x="88" y="78" width="1424" height="844" rx="30" fill="#0d1728" stroke="#27415f"/>
  <text x="140" y="165" fill="#f7fbff" font-family="Inter,Segoe UI,sans-serif" font-size="44" font-weight="800">LAUNCH-7 Add Today empty-state polish</text>
  <rect x="140" y="205" width="140" height="42" rx="21" fill="#0d9488"/>
  <text x="176" y="233" fill="#ffffff" font-family="Inter,Segoe UI,sans-serif" font-size="19" font-weight="700">Done</text>
  <rect x="305" y="205" width="250" height="42" rx="21" fill="#134e4a"/>
  <text x="336" y="233" fill="#bff5ea" font-family="Inter,Segoe UI,sans-serif" font-size="19" font-weight="700">Verified by FlowBoard</text>
  <rect x="140" y="305" width="600" height="500" rx="22" fill="#101d31" stroke="#284966"/>
  <text x="180" y="365" fill="#f7fbff" font-family="Inter,Segoe UI,sans-serif" font-size="30" font-weight="800">WorkProof</text>
  <g font-family="Inter,Segoe UI,sans-serif" font-size="22">
    <text x="180" y="430" fill="#9ba8bd">Changed files</text>
    <text x="180" y="465" fill="#f7fbff">src/pages/Today.tsx</text>
    <text x="180" y="505" fill="#f7fbff">src/components/EmptyState.tsx</text>
    <text x="180" y="570" fill="#9ba8bd">Commands</text>
    <text x="180" y="607" fill="#f7fbff">pnpm run typecheck</text>
    <text x="620" y="607" fill="#2dd4bf" text-anchor="end">0</text>
    <text x="180" y="647" fill="#f7fbff">pnpm run build</text>
    <text x="620" y="647" fill="#2dd4bf" text-anchor="end">0</text>
  </g>
  <rect x="790" y="305" width="570" height="500" rx="22" fill="#101d31" stroke="#284966"/>
  <text x="830" y="365" fill="#f7fbff" font-family="Inter,Segoe UI,sans-serif" font-size="30" font-weight="800">Auto-complete rule</text>
  <path d="M855 460h80l65 72 160-190" fill="none" stroke="#2dd4bf" stroke-width="24" stroke-linecap="round" stroke-linejoin="round"/>
  <text x="830" y="610" fill="#dce7fa" font-family="Inter,Segoe UI,sans-serif" font-size="28" font-weight="700">All required checks passed</text>
  <text x="830" y="660" fill="#9ba8bd" font-family="Inter,Segoe UI,sans-serif" font-size="23">Ticket moved to Done only after green proof.</text>
</svg>

